<?xml version="1.0" encoding="UTF-8"?>
<svg xmlns="http://www.w3.org/2000/svg" xmlns:xlink="http://www.w3.org/1999/xlink" width="24px" height="24px" viewBox="0 0 24 24" version="1.1">
<g id="surface1">
<path style=" stroke:none;fill-rule:nonzero;fill:rgb(55.686275%,65.490196%,90.980392%);fill-opacity:1;" d="M 19 0 L 5.074219 0 C 3.941406 0 2.945312 0.933594 2.945312 2.039062 L 2.945312 22.636719 C 2.945312 23.007812 3.046875 23.3125 3.214844 23.550781 C 3.414062 23.835938 3.730469 24 4.074219 24 C 4.398438 24 4.742188 23.855469 5.0625 23.585938 L 11.289062 18.292969 C 11.484375 18.128906 11.757812 18.035156 12.046875 18.035156 C 12.335938 18.035156 12.609375 18.128906 12.804688 18.292969 L 19.011719 23.582031 C 19.332031 23.855469 19.652344 24 19.976562 24 C 20.523438 24 21.054688 23.578125 21.054688 22.636719 L 21.054688 2.039062 C 21.054688 0.933594 20.132812 0 19 0 Z M 19 0 "/>
</g>
</svg>
