<?xml version="1.0" encoding="UTF-8"?>
<svg xmlns="http://www.w3.org/2000/svg" xmlns:xlink="http://www.w3.org/1999/xlink" width="24px" height="24px" viewBox="0 0 24 24" version="1.1">
<g id="surface1">
<path style=" stroke:none;fill-rule:nonzero;fill:rgb(90.980392%,27.45098%,27.45098%);fill-opacity:1;" d="M 20.902344 10.566406 C 20.734375 10.21875 20.382812 10 20 10 L 16 10 L 16 3 C 16 2.449219 15.550781 2 15 2 L 9 2 C 8.449219 2 8 2.449219 8 3 L 8 10 L 4 10 C 3.617188 10 3.265625 10.222656 3.097656 10.566406 C 2.933594 10.914062 2.980469 11.324219 3.21875 11.625 L 11.21875 21.625 C 11.410156 21.863281 11.695312 22 12 22 C 12.304688 22 12.589844 21.863281 12.78125 21.625 L 20.78125 11.625 C 21.019531 11.324219 21.066406 10.914062 20.902344 10.566406 Z M 20.902344 10.566406 "/>
</g>
</svg>
