<?xml version="1.0" encoding="iso-8859-1"?>
<!-- Generator: Adobe Illustrator 19.0.0, SVG Export Plug-In . SVG Version: 6.00 Build 0)  -->
<svg version="1.1" id="Capa_1" xmlns="http://www.w3.org/2000/svg" xmlns:xlink="http://www.w3.org/1999/xlink" x="0px" y="0px"
	 fill="#d62c1a" viewBox="0 0 490 490" style="enable-background:new 0 0 490 490;" xml:space="preserve">
<g>
	<path d="M148.16,301.779c39.831,0,72.12-32.29,72.12-72.119c0-15.418-4.838-29.706-13.079-41.429L84.219,263.049
		C96.265,286.069,120.378,301.779,148.16,301.779z"/>
	<path d="M341.841,301.779c27.782,0,51.895-15.71,63.941-38.73l-122.982-74.818c-8.24,11.723-13.079,26.011-13.079,41.429
		C269.72,269.489,302.01,301.779,341.841,301.779z"/>
	<path d="M69.086,490h351.829C459.001,490,490,459.001,490,420.914V69.086C490,30.999,459.001,0,420.914,0H69.086
		C30.999,0,0,30.999,0,69.086v351.829C0,459.001,30.999,490,69.086,490z M30.625,69.086c0-21.204,17.257-38.461,38.461-38.461
		h351.829c21.204,0,38.461,17.257,38.461,38.461v351.829c0,21.204-17.257,38.461-38.461,38.461H69.086
		c-21.204,0-38.461-17.257-38.461-38.461V69.086z"/>
</g>
<g>
</g>
<g>
</g>
<g>
</g>
<g>
</g>
<g>
</g>
<g>
</g>
<g>
</g>
<g>
</g>
<g>
</g>
<g>
</g>
<g>
</g>
<g>
</g>
<g>
</g>
<g>
</g>
<g>
</g>
</svg>
