<svg xmlns="http://www.w3.org/2000/svg" xmlns:svgjs="http://svgjs.com/svgjs" xmlns:xlink="http://www.w3.org/1999/xlink" width="288" height="288"><svg xmlns="http://www.w3.org/2000/svg" width="288" height="288" version="1.0" viewBox="0 0 512 512"><g fill="#fff1f1" class="color000 svgShape" transform="matrix(.1 0 0 -.1 0 512)"><path d="M0 2730 l0 -2390 208 0 207 0 515 515 515 515 305 -2 305 -3 22 -110c45 -223 129 -425 248 -596 74 -106 275 -308 380 -381 397 -277 904 -350 1365
-197 335 111 646 359 822 654 134 224 197 420 220 683 32 360 -75 733 -294
1028 l-38 51 0 1311 0 1312 -2390 0 -2390 0 0 -2390z m4440 1070 c0 -539 -3
-980 -6 -980 -4 0 -33 16 -65 35 -169 103 -449 197 -618 207 -20 1 50 5 154 8
l190 5 3 168 2 167 -1540 0 -1540 0 2 -167 3 -168 1210 -5 c666 -3 1196 -6
1179 -8 -211 -16 -524 -136 -712 -272 l-83 -60 -800 0 -799 0 0 -170 0 -170
640 0 c352 0 640 -3 640 -7 0 -5 -9 -21 -21 -38 -80 -118 -176 -368 -205 -537
l-17 -98 -381 0 -381 0 -477 -477 -478 -478 0 2013 0 2012 2050 0 2050 0 0
-980z m-673 -1105 c237 -39 448 -143 622 -310 98 -94 151 -161 214 -270 185
-320 203 -718 50 -1060 -113 -251 -337 -475 -588 -588 -342 -153 -740 -135
-1060 50 -109 63 -176 116 -270 214 -440 460 -431 1181 21 1633 266 266 645
390 1011 331z" class="color000 svgShape"/><path d="M1024 4087c-2-7-3-85-2-172l3-160 1535 0 1535 0 0 170 0 170-1533 3c-1246 2-1534 0-1538-11zM3072 2047l-172-172 170-170 170-170-170-170-170-170 170-170 170-170 170 170 170 170 168-168c92-92 172-167 177-167 13 0 335 322 335 335 0 5-75 85-167 177l-168 168 170 170 170 170-170 170-170 170-170-170-170-170-170 170-170 170-173-173z" class="color000 svgShape"/></g></svg></svg>