<?xml version="1.0" encoding="utf-8"?>
<!-- Generator: Adobe Illustrator 19.1.0, SVG Export Plug-In . SVG Version: 6.00 Build 0)  -->
<svg version="1.1" id="Layer_1" xmlns="http://www.w3.org/2000/svg" xmlns:xlink="http://www.w3.org/1999/xlink" x="0px" y="0px"
	 fill="white" viewBox="0 0 64 64" enable-background="new 0 0 64 64" xml:space="preserve">
<g id="Lock">
	<path d="M32,0C14.3268995,0,0,14.3268003,0,32c0,17.6730003,14.3268995,32,32,32s32-14.3269997,32-32
		C64,14.3268003,49.6730957,0,32,0z M32,62C15.4579,62,2,48.5419998,2,32C2,15.4579,15.4579,2,32,2s30,13.4579,30,30
		C62,48.5419998,48.542099,62,32,62z"/>
	<path d="M41,25h-2.1653023c0.0684013-0.3834991,0.1077003-0.7723007,0.1077003-1.1660995
		c0-3.7362995-3.1142998-6.7763004-6.9423981-6.7763004s-6.9424,3.0400009-6.9424,6.7763004
		c0,0.3937988,0.0393009,0.7826004,0.1077003,1.1660995H23c-2.2091999,0-4,1.7908001-4,4v14c0,2.2090988,1.7908001,4,4,4h18
		c2.209198,0,4-1.7909012,4-4V29C45,26.7908001,43.209198,25,41,25z M26.9424,23.8339005
		c0-2.6972008,2.2695007-4.8915997,5.0576-4.8915997s5.0575981,2.1943989,5.0575981,4.8915997
		c0,0.3962994-0.0522003,0.7855988-0.1495972,1.1660995h-9.8160019C26.9946003,24.6194992,26.9424,24.2301998,26.9424,23.8339005z
		 M43,43c0,1.1026993-0.8972015,2-2,2H23c-1.1028004,0-2-0.8973007-2-2V29c0-1.1028996,0.8971996-2,2-2h18
		c1.1027985,0,2,0.8971004,2,2V43z"/>
</g>
<g>
</g>
<g>
</g>
<g>
</g>
<g>
</g>
<g>
</g>
<g>
</g>
<g>
</g>
<g>
</g>
<g>
</g>
<g>
</g>
<g>
</g>
<g>
</g>
<g>
</g>
<g>
</g>
<g>
</g>
</svg>
